# xmcd
#
# Track frame offsets:
#	180
#	17860
#	34884
#	50814
#	62813
#	72744
#	91203
#	100928
#	115650
#	123213
#	136649
#
# Disc length: 1966 seconds
#
# Revision: 0
# Processed by: cddbd v1.4PL0 Copyright (c) Steve Scherf et al.
# Submitted via: EasyCDDAExtractor 5.0.5.1
#
DISCID=9807ac0b
DTITLE=John Marshall Family - Abide In Me
DYEAR=2001
DGENRE=gospel
TTITLE0=Abide In Me
TTITLE1=Keep On The Firing Line
TTITLE2=Constantly Abiding
TTITLE3=The Bible Bookstore
TTITLE4=You Are My Hiding Place
TTITLE5=God Is Still Holy
TTITLE6=Hallelujah
TTITLE7=The Cleansing Wave
TTITLE8=The Assurance March
TTITLE9=Sweet By And By
TTITLE10=He Hideth My Soul
EXTD=
EXTT0=
EXTT1=
EXTT2=
EXTT3=
EXTT4=
EXTT5=
EXTT6=
EXTT7=
EXTT8=
EXTT9=
EXTT10=
PLAYORDER=
